<svg width="1000" height="1000" viewBox="0 0 1000 1000" fill="none" xmlns="http://www.w3.org/2000/svg">
<path d="M663.333 266H406.667C380.93 266 360 286.93 360 312.667V382.666C360 408.403 380.93 429.333 406.667 429.333H663.333C689.07 429.333 710 408.403 710 382.666V312.667C710 286.93 689.07 266 663.333 266ZM406.667 382.666V312.667H663.333L663.38 382.666H406.667Z" fill="black"/>
<path d="M546.667 569.336V522.669C546.667 496.932 525.737 476.001 500 476.001H336.667V336C310.93 336 290 356.93 290 382.667V476.001C290 501.738 310.93 522.669 336.667 522.669H500V569.336C493.812 569.336 487.877 571.794 483.501 576.17C479.125 580.546 476.667 586.481 476.667 592.669V709.337C476.667 715.526 479.125 721.461 483.501 725.836C487.877 730.212 493.812 732.671 500 732.671H546.667C552.855 732.671 558.79 730.212 563.166 725.836C567.542 721.461 570 715.526 570 709.337V592.669C570 586.481 567.542 580.546 563.166 576.17C558.79 571.794 552.855 569.336 546.667 569.336Z" fill="black"/>
<path d="M125 312.5V187.5C125 152.982 152.982 125 187.5 125H312.5" stroke="black" stroke-width="31" stroke-linecap="round" stroke-linejoin="round"/>
<path d="M125 687V812C125 846.519 152.982 874.5 187.5 874.5H312.5" stroke="black" stroke-width="31" stroke-linecap="round" stroke-linejoin="round"/>
<path d="M688 874.5H813C847.519 874.5 875.5 846.519 875.5 812V687" stroke="black" stroke-width="31" stroke-linecap="round" stroke-linejoin="round"/>
<path d="M875.5 312.5V187.5C875.5 152.982 847.519 125 813 125H688" stroke="black" stroke-width="31" stroke-linecap="round" stroke-linejoin="round"/>
</svg>
